<?xml version="1.0" encoding="UTF-8"?>
<svg id="katman_1" data-name="katman 1" xmlns="http://www.w3.org/2000/svg" viewBox="180 570 1050 250">
  <defs>
    <style>
      .cls-1, .cls-2 {
        stroke-width: 0px;
      }

      .cls-3 {
        letter-spacing: -.05em;
      }

      .cls-4 {
        letter-spacing: -.02em;
      }

      .cls-5 {
        fill: #fff;
      }

      .cls-5, .cls-6 {
        font-family: Atnia-Regular, Atnia;
        font-size: 205.86px;
      }

      .cls-6, .cls-2 {
        fill: #22c55e;
      }
    </style>
  </defs>
  <text class="cls-6" transform="translate(402.87 749.17)"><tspan x="0" y="0">d</tspan><tspan class="cls-4" x="131.75" y="0">r</tspan><tspan class="cls-3" x="231.18" y="0">a</tspan><tspan x="360.87" y="0">ft</tspan></text>
  <text class="cls-5" transform="translate(912.99 751.23)"><tspan class="cls-3" x="0" y="0">u</tspan><tspan x="133.81" y="0">p</tspan></text>
  <g>
    <path class="cls-2" d="m300.02,702.87c4.99.08,9.68-2.37,11.95-5.74,6.46-6.43.19-15.87-10.2-16.06-10.38-.78-18.53,7.15-15.39,14.75,1.56,4.62,7.73,7.16,13.65,7.04Z"/>
    <path class="cls-2" d="m194.99,792.08c20.8,10.53,48.62,13.19,72.03,6.57,17.98-5.36,31.66-16.54,43.44-27.92,4.46-4.17,8.95-8.33,13.64-12.35,3.38-2.85,7.03-5.84,11.67-7.49,3.92-1.45,9.09-2.27,13.01-.32,4.89,2.42,7.27,7.64,13.32,8.6,7.16.4,10.13-6.34,11.02-10.8,2.24-13.42-2.64-26.81-8.13-39.44-7.64-16.68-15.63-34.13-13.54-52.22,1.95-16,9.53-30.97,21.33-44.29,9.11-10.37,19.08-21.12,21.05-33.88,3.02-14.73-11.23-29.85-30.36-32.2-17.76-2.19-33.42,7.98-42.45,18.83-8.96,10.62-13.44,23.19-13.51,35.81-.22,11.46,2.11,22.86,4.99,34.08,6.83,23.7,17.6,48.29,6.46,72.27h0s0,0,0,.01h0s-.01.03-.02.05c0,0,0,.01-.01.02,0,.01,0,.02-.02.03-6.95,15.72-20.95,29.66-42.16,34.74-8.27,1.93-17.39,3.13-25.78.95-14.91-4.26-24.9-13.48-25.55-25.92-.5-9.27,3.48-19.11,12.61-25.41,5.6-3.63,12.8-5.38,19.87-6.47,3.83-.5,7.69-.76,11.57-.91,4.22-.41,11.28.69,14.19-1.99,4.02-4.44-6.72-7.97-10.91-9.13-5.8-1.45-11.86-2.15-17.89-2.75-30.1-2.82-60.99,7.97-77.63,27.55-28.49,31.01-23.46,71.42,17.78,93.98Z"/>
  </g>
</svg>
